<svg xmlns="http://www.w3.org/2000/svg" viewBox="65 43 270 270">
  <rect x="134" y="262" width="132" height="18" rx="9" fill="#ccc6bc"/>
  <rect x="144" y="249" width="112" height="15" rx="4" fill="#ddd8d0"/>
  <rect x="148" y="130" width="104" height="121" rx="4" fill="#edeae4" stroke="#d6d0c8" stroke-width="1"/>
  <rect x="140" y="114" width="120" height="18" rx="3" fill="#ddd8d0" stroke="#d6d0c8" stroke-width="1"/>
  <rect x="142" y="76" width="28" height="40" rx="3" fill="#edeae4" stroke="#d6d0c8" stroke-width="1"/>
  <rect x="186" y="76" width="28" height="40" rx="3" fill="#edeae4" stroke="#d6d0c8" stroke-width="1"/>
  <rect x="230" y="76" width="28" height="40" rx="3" fill="#edeae4" stroke="#d6d0c8" stroke-width="1"/>
  <line x1="152" y1="160" x2="248" y2="160" stroke="#d6d0c8" stroke-width="1"/>
  <line x1="152" y1="195" x2="248" y2="195" stroke="#d6d0c8" stroke-width="1"/>
  <line x1="152" y1="228" x2="248" y2="228" stroke="#d6d0c8" stroke-width="1"/>
  <circle cx="168" cy="145" r="5" fill="#d6d0c8"/>
  <circle cx="184" cy="145" r="5" fill="#ccc6bc"/>
  <circle cx="168" cy="177" r="5" fill="#d6d0c8"/>
  <circle cx="184" cy="177" r="5" fill="#d6d0c8"/>
  <circle cx="168" cy="211" r="5" fill="#ccc6bc"/>
  <circle cx="184" cy="211" r="5" fill="#d6d0c8"/>
  <circle cx="168" cy="240" r="5" fill="#d6d0c8"/>
  <circle cx="184" cy="240" r="5" fill="#ccc6bc"/>
</svg>
