<svg width="680" height="340" viewBox="0 0 680 340" xmlns="http://www.w3.org/2000/svg">
  <g transform="translate(340, 130)">
    <rect x="-50" y="80" width="100" height="14" rx="7" fill="#534AB7"/>
    <rect x="-42" y="68" width="84" height="16" rx="4" fill="#7F77DD"/>
    <path d="M-32 68 L-26 10 Q-24 0 -16 0 L16 0 Q24 0 26 10 L32 68Z" fill="#7F77DD"/>
    <rect x="-4" y="-36" width="8" height="28" rx="2" fill="#534AB7"/>
    <rect x="-12" y="-30" width="24" height="8" rx="2" fill="#534AB7"/>
    <line x1="34" y1="40" x2="80" y2="40" stroke="#AFA9EC" stroke-width="1.5" stroke-linecap="round"/>
    <circle cx="80" cy="40" r="3" fill="#AFA9EC"/>
    <line x1="80" y1="40" x2="80" y2="12" stroke="#AFA9EC" stroke-width="1.5" stroke-linecap="round"/>
    <circle cx="80" cy="12" r="3" fill="#AFA9EC"/>
    <line x1="-34" y1="40" x2="-80" y2="40" stroke="#AFA9EC" stroke-width="1.5" stroke-linecap="round"/>
    <circle cx="-80" cy="40" r="3" fill="#AFA9EC"/>
    <line x1="-80" y1="40" x2="-80" y2="12" stroke="#AFA9EC" stroke-width="1.5" stroke-linecap="round"/>
    <circle cx="-80" cy="12" r="3" fill="#AFA9EC"/>
    <line x1="20" y1="-10" x2="55" y2="-10" stroke="#CECBF6" stroke-width="1" stroke-linecap="round"/>
    <circle cx="55" cy="-10" r="2.5" fill="#CECBF6"/>
    <line x1="-20" y1="-10" x2="-55" y2="-10" stroke="#CECBF6" stroke-width="1" stroke-linecap="round"/>
    <circle cx="-55" cy="-10" r="2.5" fill="#CECBF6"/>
  </g>
  <text x="340" y="280" text-anchor="middle" font-family="Georgia, 'Times New Roman', serif" font-size="46" font-weight="400" letter-spacing="2"><tspan fill="#534AB7">Auto</tspan><tspan fill="#7F77DD">Mate</tspan></text>
  <text x="340" y="312" text-anchor="middle" font-family="system-ui, -apple-system, sans-serif" font-size="13" font-weight="400" fill="#888" letter-spacing="5">YOUR NEXT MOVE, ELEVATED</text>
</svg>
